<svg width="24" height="24" viewBox="0 0 24 24" fill="none" xmlns="http://www.w3.org/2000/svg">
<path d="M15.8102 21.209C15.7358 21.6006 15.6045 21.96 15.4155 22.2873C15.2202 22.625 14.9645 22.9277 14.6487 23.1951C14.3329 23.4621 13.9883 23.6633 13.6168 23.7979C13.2446 23.9324 12.8485 24 12.4301 24C12.0116 24 11.6157 23.9324 11.2432 23.7979C10.8715 23.6635 10.5274 23.4621 10.2116 23.1951C9.89554 22.9277 9.63987 22.6248 9.44456 22.2873C9.24964 21.9498 9.11604 21.5783 9.04339 21.1728C9.00803 20.9746 9.14007 20.7848 9.33831 20.7492C9.34456 20.7482 9.40257 20.7426 9.40257 20.7422H15.4575C15.66 20.7422 15.8241 20.9062 15.8241 21.1084C15.8239 21.1433 15.8194 21.1769 15.8102 21.209ZM14.359 1.34152C14.6561 1.41906 14.9446 1.51321 15.2243 1.62356C15.6362 1.78606 16.0319 1.98215 16.411 2.21086C16.4258 2.22004 16.4403 2.22981 16.4545 2.23977C16.818 2.46321 17.1561 2.70872 17.468 2.97649C17.7942 3.25657 18.0983 3.56614 18.3801 3.90501L18.3825 3.90755H18.3829C18.6583 4.24114 18.9047 4.5972 19.1225 4.97435C19.3411 5.35345 19.528 5.74818 19.6825 6.15717L19.6833 6.15697C19.843 6.57768 19.9626 7.00893 20.0415 7.45033C20.1208 7.89389 20.16 8.34858 20.16 8.8144C20.16 9.73511 20.16 10.2318 20.1604 10.2921C20.1624 10.7642 20.1649 11.2255 20.1684 11.6759V11.6806C20.17 12.0875 20.1967 12.4968 20.2473 12.907C20.2973 13.3127 20.3706 13.7045 20.4651 14.0816L20.4659 14.0814C20.5608 14.4533 20.6891 14.8109 20.8501 15.1543C21.0153 15.5078 21.2163 15.8535 21.4528 16.1916L21.454 16.1908C21.6874 16.5222 21.9796 16.8496 22.3305 17.1726C22.6928 17.5064 23.1137 17.8334 23.5925 18.1537C23.8671 18.3377 23.9407 18.7096 23.7565 18.9844C23.6413 19.1564 23.452 19.2496 23.2591 19.2498V19.2517H17.8446H12.4301H7.01525H1.60078C1.26895 19.2517 1 18.9828 1 18.6512C1 18.433 1.11621 18.2422 1.29004 18.1369C1.77657 17.8076 2.19434 17.4818 2.54317 17.1588C2.89024 16.8373 3.18087 16.5084 3.41466 16.1715C3.42169 16.1615 3.42872 16.1519 3.43614 16.1426C3.66212 15.8117 3.85548 15.4746 4.01564 15.1322C4.17853 14.784 4.30919 14.4248 4.40704 14.0547C4.409 14.0468 4.41114 14.0392 4.41349 14.0316C4.50626 13.6722 4.57697 13.2935 4.62599 12.8964C4.67521 12.4966 4.69982 12.0837 4.69982 11.6587V8.8144C4.69982 8.35737 4.74083 7.90209 4.82267 7.44975C4.90451 6.99799 5.02501 6.5642 5.1838 6.14994C5.34181 5.73568 5.53127 5.33861 5.75119 4.95931C5.96974 4.58255 6.21935 4.22435 6.49885 3.88587L6.50217 3.88196L6.50139 3.88118C6.78029 3.54778 7.08635 3.23821 7.41955 2.95364C7.74826 2.67297 8.10315 2.4179 8.48401 2.18918C8.86975 1.95891 9.26819 1.76555 9.68089 1.60891C9.9678 1.49992 10.2627 1.40852 10.5655 1.33449C10.6688 0.972969 10.8461 0.68039 11.0971 0.456366C11.4436 0.14699 11.9004 -0.00476868 12.4672 0.000114152C13.0288 0.00499698 13.4817 0.160466 13.825 0.467108C14.0768 0.691913 14.2549 0.983321 14.359 1.34152ZM14.7879 2.74036C14.4557 2.6095 14.1168 2.50637 13.7717 2.43235C13.5059 2.39797 13.287 2.18762 13.253 1.9095C13.2205 1.64758 13.1454 1.46399 13.0276 1.35891C12.9094 1.25324 12.7194 1.19934 12.4579 1.19699C12.1981 1.19465 12.0104 1.24504 11.895 1.34817C11.7778 1.45285 11.7036 1.63821 11.6723 1.90481H11.6717C11.6428 2.1593 11.4516 2.37629 11.1866 2.42571C10.8125 2.49661 10.4518 2.59817 10.1032 2.73059C9.75511 2.86262 9.42054 3.02493 9.09866 3.21692C8.77815 3.40931 8.47815 3.62532 8.19846 3.86399C7.91916 4.10247 7.65998 4.36517 7.42112 4.65072L7.42033 4.65013C7.18713 4.93314 6.97619 5.23665 6.78869 5.56009C6.60412 5.87826 6.44279 6.21752 6.30568 6.57709C6.16857 6.93451 6.06701 7.29623 6.00099 7.66108C5.93459 8.02709 5.90158 8.41186 5.90158 8.8146V11.6591C5.90158 12.1302 5.87365 12.5916 5.81818 13.0425C5.76466 13.4769 5.68283 13.9074 5.57287 14.3326C5.57091 14.3418 5.56877 14.3511 5.56642 14.3603C5.45177 14.7937 5.29611 15.2201 5.09982 15.6394C4.91036 16.0443 4.68478 16.4381 4.42384 16.8203C4.41642 16.8328 4.40861 16.8451 4.40021 16.8572C4.12521 17.2529 3.77677 17.6461 3.35489 18.0367L3.33966 18.0506H7.01525H12.4301H17.8446H21.5139C21.1016 17.6705 20.7548 17.2806 20.4733 16.8808L20.4741 16.8801L20.4733 16.8785C20.1967 16.4832 19.9606 16.0773 19.7661 15.6615C19.5672 15.2373 19.4128 14.8091 19.3022 14.3773L19.3026 14.3771L19.3022 14.375C19.1938 13.9449 19.111 13.5037 19.0553 13.0525C19.0024 12.6211 18.9741 12.1658 18.9717 11.6869V11.6855C18.9682 11.2406 18.9657 10.7761 18.9637 10.2923C18.9602 9.39702 18.9588 8.90835 18.9588 8.8146C18.9588 8.41928 18.9256 8.03491 18.8588 7.66186C18.7924 7.29018 18.6932 6.9308 18.5618 6.58432L18.5626 6.58412L18.5618 6.58197C18.4268 6.22474 18.268 5.88724 18.0854 5.57064C17.903 5.25482 17.694 4.95365 17.4583 4.6679L17.4586 4.66771C17.2249 4.38685 16.9684 4.12669 16.6893 3.88704C16.4188 3.65501 16.1331 3.44641 15.8313 3.26067C15.818 3.25384 15.8045 3.24661 15.7917 3.2386C15.4661 3.04251 15.1317 2.87591 14.7879 2.74036Z" fill="white"/>
</svg>
