<svg width="24" height="24" viewBox="0 0 24 24" fill="none" xmlns="http://www.w3.org/2000/svg">
<path d="M15.6126 21.297C15.5403 21.6759 15.4134 22.0235 15.2298 22.3418C15.0403 22.668 14.7923 22.9629 14.4876 23.2207C14.181 23.4785 13.849 23.6738 13.4877 23.8047C13.1263 23.9355 12.7435 24 12.3393 24C11.933 24 11.5502 23.9336 11.1908 23.8047C10.8315 23.6738 10.4975 23.4805 10.1928 23.2207C9.8862 22.961 9.64011 22.668 9.45067 22.3418C9.26122 22.0157 9.13232 21.6563 9.06201 21.2618C9.02685 21.0704 9.15575 20.8868 9.34715 20.8517C9.35301 20.8517 9.40965 20.8458 9.40965 20.8458H15.2728C15.4681 20.8458 15.6282 21.004 15.6282 21.2013C15.6263 21.2345 15.6204 21.2657 15.6126 21.297ZM4.94689 0.0495469C5.30431 -0.093027 5.70859 0.082749 5.85116 0.44016C5.99374 0.797571 5.81796 1.20186 5.46055 1.34443C4.68714 1.65301 4.03872 2.08074 3.52116 2.63541C3.00555 3.19008 2.61689 3.87756 2.36299 4.7037C2.24971 5.07088 1.8591 5.27791 1.49192 5.16463C1.12474 5.05135 0.917718 4.66074 1.031 4.29356C1.34935 3.25843 1.84152 2.39127 2.4997 1.68426C3.15789 0.979207 3.97622 0.436254 4.94689 0.0495469ZM19.216 1.34443C18.8586 1.20186 18.6828 0.797571 18.8254 0.44016C18.968 0.082749 19.3722 -0.093027 19.7297 0.0495469C20.7003 0.436254 21.5187 0.979207 22.1768 1.68622C22.835 2.39518 23.3292 3.26234 23.6456 4.29551C23.7588 4.66269 23.5518 5.0533 23.1846 5.16658C22.8175 5.27986 22.4268 5.07283 22.3136 4.70566C22.0597 3.87756 21.671 3.19008 21.1554 2.63736C20.6378 2.08074 19.9894 1.65301 19.216 1.34443ZM15.0442 2.33268C15.4427 2.49088 15.8255 2.68033 16.1927 2.90102C16.2063 2.91079 16.2219 2.9186 16.2356 2.92837C16.5872 3.14516 16.9153 3.38343 17.2161 3.64124C17.8586 4.19395 18.3938 4.84237 18.8176 5.57672C19.0285 5.9439 19.2101 6.3267 19.3605 6.72122C19.5148 7.12941 19.63 7.54542 19.7082 7.97314C19.7843 8.40281 19.8234 8.84225 19.8234 9.29341C19.8234 10.184 19.8234 10.6664 19.8234 10.725C19.8254 11.182 19.8273 11.6293 19.8312 12.0648V12.0687C19.8332 12.4632 19.8586 12.8597 19.9074 13.2562C19.9562 13.6487 20.0265 14.0276 20.1183 14.3929C20.2101 14.7522 20.3351 15.0999 20.4894 15.4319C20.6495 15.7737 20.8449 16.1096 21.0734 16.4358H21.0753C21.3019 16.7561 21.5851 17.0744 21.9249 17.3869C22.2765 17.7092 22.6827 18.0275 23.1475 18.3361C23.4131 18.5138 23.4854 18.8752 23.3057 19.1408C23.1944 19.3068 23.0108 19.3986 22.8233 19.3986V19.4005H17.5793H12.3393H7.09527H1.85324C1.53098 19.4005 1.27122 19.1408 1.27122 18.8185C1.27122 18.6076 1.3845 18.422 1.55246 18.3205C2.02315 18.0021 2.42744 17.6857 2.76532 17.3732C3.10125 17.0627 3.38249 16.7444 3.60904 16.4162C3.6149 16.4065 3.62272 16.3967 3.63053 16.3889C3.84927 16.0686 4.03677 15.7424 4.19106 15.4104C4.34926 15.0725 4.47621 14.7249 4.56995 14.3675C4.57191 14.3597 4.57386 14.3519 4.57581 14.346C4.66565 13.9983 4.73401 13.6312 4.78088 13.2464C4.82776 12.8597 4.85315 12.4593 4.85315 12.0472V9.29341C4.85315 8.85007 4.89221 8.41062 4.97228 7.97118C5.05236 7.5337 5.16759 7.11379 5.32188 6.71341C5.47422 6.31303 5.65781 5.92828 5.87069 5.5611C6.30037 4.81893 6.83356 4.17638 7.48588 3.61975C7.80423 3.34828 8.14797 3.10024 8.5171 2.87954C8.89014 2.65689 9.27684 2.4694 9.67527 2.31706C9.9526 2.21159 10.2397 2.1237 10.5327 2.05144C10.6323 1.70184 10.8041 1.41865 11.0483 1.20186C11.3842 0.903037 11.8256 0.754604 12.3744 0.760463C12.9174 0.764369 13.3568 0.914755 13.6888 1.21357C14.8626 2.25847 13.4017 1.68426 15.0442 2.33268Z" fill="white"/>
</svg>
