<svg width="24" height="24" viewBox="0 0 24 24" fill="none" xmlns="http://www.w3.org/2000/svg">
<g clip-path="url(#clip0_908_5869)">
<path fill-rule="evenodd" clip-rule="evenodd" d="M12 0C18.6262 0 24 5.37383 24 12C24 18.6262 18.6262 23.9998 12 23.9998C5.37363 24 0 18.6262 0 12C0 5.37383 5.37363 0 12 0ZM19.2393 7.23613L7.23652 19.2389C8.60352 20.1406 10.2402 20.666 12 20.666C16.7852 20.666 20.6658 16.7854 20.6658 12.0002C20.6658 10.2404 20.1404 8.60352 19.2393 7.23613ZM4.76133 16.7635L16.7639 4.76074C15.3973 3.85938 13.7598 3.33418 12 3.33418C7.21484 3.33418 3.33418 7.21504 3.33418 12C3.33437 13.7596 3.85957 15.3965 4.76133 16.7635Z" fill="white"/>
</g>
<defs>
<clipPath id="clip0_908_5869">
<rect width="24" height="24" fill="white"/>
</clipPath>
</defs>
</svg>
