<svg width="24" height="24" viewBox="0 0 24 24" fill="none" xmlns="http://www.w3.org/2000/svg">
<path fill-rule="evenodd" clip-rule="evenodd" d="M5.32637 0H21.3659V18.4056C21.3374 18.9212 20.6919 18.9329 19.9932 18.8997H5.08905C4.62377 18.8997 4.17755 19.0898 3.84855 19.4282C3.51956 19.7667 3.33473 20.2257 3.33473 20.7043C3.33473 21.1829 3.51956 21.6419 3.84855 21.9804C4.17755 22.3188 4.62377 22.5089 5.08905 22.5089H20.6273V20.5891H22V23.0284C21.9995 23.2427 21.9165 23.4481 21.7692 23.5996C21.6219 23.7511 21.4223 23.8365 21.214 23.837H5.15739C3.42016 24.4991 2 23.046 2 21.2512V3.42175C2.0025 2.51504 2.35377 1.6462 2.97704 1.00505C3.60031 0.363908 4.44493 0.00257663 5.32637 0ZM5.08525 21.0773H19.3552C19.4247 21.0773 19.4914 21.1057 19.5405 21.1563C19.5896 21.2068 19.6172 21.2754 19.6172 21.3469V21.5109C19.6167 21.5822 19.589 21.6505 19.5399 21.7009C19.4909 21.7514 19.4246 21.7799 19.3552 21.7804H5.08525C5.01558 21.7804 4.94874 21.7521 4.89931 21.7016C4.84987 21.6511 4.82184 21.5826 4.82134 21.5109V21.3469C4.82184 21.2752 4.84987 21.2066 4.89931 21.1562C4.94874 21.1057 5.01558 21.0773 5.08525 21.0773ZM5.08525 19.6829H19.3552C19.4247 19.6829 19.4914 19.7112 19.5405 19.7618C19.5896 19.8123 19.6172 19.8809 19.6172 19.9524V20.1164C19.6167 20.1878 19.589 20.256 19.5399 20.3064C19.4909 20.3569 19.4246 20.3854 19.3552 20.386H5.08525C5.01558 20.386 4.94874 20.3576 4.89931 20.3071C4.84987 20.2566 4.82184 20.1881 4.82134 20.1164V19.9524C4.82184 19.8807 4.84987 19.8122 4.89931 19.7617C4.94874 19.7112 5.01558 19.6829 5.08525 19.6829Z" fill="white"/>
</svg>
