<svg width="24" height="24" viewBox="0 0 24 24" fill="none" xmlns="http://www.w3.org/2000/svg">
<g clip-path="url(#clip0_908_5835)">
<path d="M11.9966 1.181e-05C14.773 -0.000781816 17.4638 0.961192 19.6104 2.72201C21.7571 4.48282 23.2267 6.93352 23.7689 9.65648C24.3111 12.3794 23.8924 15.2062 22.584 17.655C21.2756 20.1038 19.1586 22.0231 16.5936 23.086C14.0287 24.1488 11.1746 24.2893 8.51762 23.4836C5.86068 22.6779 3.56533 20.9758 2.02272 18.6673C0.480104 16.3589 -0.214317 13.587 0.0577887 10.8239C0.329894 8.06088 1.55169 5.47766 3.51497 3.51449C4.62725 2.3985 5.94922 1.51347 7.40483 0.910319C8.86044 0.307166 10.4209 -0.00220316 11.9966 1.181e-05ZM15.0346 11.2112L13.623 12.0137C13.6175 12.1173 13.6012 12.22 13.5742 12.3202C13.4657 12.7173 13.2049 13.0556 12.8484 13.2614C12.492 13.4672 12.0686 13.5241 11.6705 13.4195C11.5638 13.3905 11.4605 13.3506 11.362 13.3004L9.86641 14.1516L15.8996 18.5936L15.0346 11.2112ZM9.08932 12.863L10.5283 12.0449C10.5135 11.8684 10.5294 11.6908 10.5752 11.5197C10.6836 11.1226 10.9444 10.7843 11.3009 10.5785C11.6574 10.3727 12.0807 10.3159 12.4788 10.4204C12.657 10.4695 12.8254 10.5488 12.9767 10.6547L14.2536 9.92256L8.22827 5.48065L9.08932 12.863ZM18.6194 5.37326C17.0886 3.83715 15.0725 2.87945 12.9146 2.66339C10.7568 2.44734 8.59082 2.98631 6.78587 4.18843C4.98092 5.39055 3.64872 7.18142 3.01633 9.2558C2.38395 11.3302 2.49053 13.5597 3.3179 15.5643C4.14526 17.5689 5.64222 19.2245 7.5536 20.249C9.46499 21.2734 11.6725 21.6033 13.7999 21.1824C15.9273 20.7615 17.8429 19.6159 19.2202 17.9408C20.5974 16.2657 21.3512 14.1647 21.3529 11.9961C21.3558 10.7666 21.1158 9.54858 20.6467 8.41205C20.1776 7.27552 19.4887 6.24283 18.6194 5.37326Z" fill="white"/>
</g>
<defs>
<clipPath id="clip0_908_5835">
<rect width="24" height="24" fill="white"/>
</clipPath>
</defs>
</svg>
