<svg width="24" height="24" viewBox="0 0 24 24" fill="none" xmlns="http://www.w3.org/2000/svg">
<path fill-rule="evenodd" clip-rule="evenodd" d="M20.3476 4.06478L20.3495 4.06869C21.0825 4.07064 21.7441 4.36364 22.2235 4.83633C22.6989 5.30707 22.996 5.95752 22.996 6.67632H23V6.68023V21.3846V21.3865H22.996C22.9941 22.1053 22.6969 22.7597 22.2175 23.2343C21.7401 23.7031 21.0805 23.9961 20.3515 23.9961V24H20.3476H8.62255H8.62057V23.9961C7.88961 23.9941 7.226 23.7031 6.74662 23.2285C6.2712 22.7577 5.97407 22.1073 5.97209 21.3885C5.97209 16.3177 5.97209 11.751 5.97209 6.68023V6.67828H5.97605C5.97803 5.95752 6.27715 5.30317 6.75653 4.83047C7.23393 4.36168 7.89159 4.06869 8.62255 4.06674V4.06283H8.62651C12.5329 4.06478 16.4412 4.06478 20.3476 4.06478ZM1.00396 14.7239L1 2.61545V2.61349H1.00396C1.00594 1.89273 1.30506 1.23838 1.78246 0.765687C2.25986 0.296899 2.9195 0.00390657 3.64848 0.00195328V0H3.65244H15.3775C16.9008 0 17.1405 1.94547 15.3794 1.98454H3.65442H3.65046V1.98063C3.47614 1.98063 3.31767 2.0529 3.20079 2.1701C3.08392 2.28339 3.01062 2.44356 3.01062 2.61349H3.01459V2.61545V3.23464C3.01459 7.06503 3.01459 10.8935 3.01459 14.7219C3.01459 16.3353 1.00396 16.4252 1.00396 14.7239ZM20.9894 21.3865V6.68023V6.67632H20.9933C20.9933 6.50639 20.92 6.34817 20.8012 6.23293C20.6843 6.11964 20.5239 6.04541 20.3495 6.04541V6.04932H20.3476H8.62255H8.61858V6.04541C8.44426 6.04541 8.28579 6.11964 8.16892 6.23488C8.05204 6.34817 7.97875 6.50834 7.97875 6.67828H7.98271V6.68023V21.3846V21.3885H7.97875C7.97875 21.5603 8.05402 21.7166 8.1709 21.8319C8.28777 21.9471 8.44823 22.0194 8.62057 22.0194V22.0155H8.62255H20.3476H20.3515V22.0194C20.5239 22.0194 20.6843 21.9451 20.8012 21.8299C20.9181 21.7166 20.9914 21.5564 20.9914 21.3865H20.9894Z" fill="white"/>
</svg>
