<svg width="24" height="24" viewBox="0 0 24 24" fill="none" xmlns="http://www.w3.org/2000/svg">
<g clip-path="url(#clip0_908_5853)">
<path d="M0.567512 23.4268C-0.192254 22.665 -0.188347 21.4326 0.574348 20.6748L9.28919 12L0.574348 3.3252C-0.188347 2.56788 -0.192254 1.33448 0.567512 0.573249C1.32728 -0.187981 2.56165 -0.191887 3.32532 0.566413L12.0001 9.20167L20.6749 0.566413C21.4386 -0.191887 22.673 -0.187981 23.4327 0.573249C24.1925 1.33448 24.1886 2.56788 23.4259 3.3252L14.7111 12L23.4259 20.6748C24.1886 21.4326 24.1925 22.665 23.4327 23.4268C22.673 24.188 21.4386 24.1919 20.6749 23.4341L12.0001 14.7988L3.32532 23.4341C2.84779 23.9077 2.18665 24.084 1.57239 23.9639C1.20423 23.8916 0.852668 23.7124 0.567512 23.4268Z" fill="white"/>
</g>
<defs>
<clipPath id="clip0_908_5853">
<rect width="24" height="24" fill="white"/>
</clipPath>
</defs>
</svg>
