<svg width="24" height="24" viewBox="0 0 24 24" fill="none" xmlns="http://www.w3.org/2000/svg">
<path fill-rule="evenodd" clip-rule="evenodd" d="M18.625 5.74911C20.7734 4.7721 22.5664 4.78911 24 5.73021L11.3047 12.8074C10.9064 13.1328 10.4138 13.3308 9.89453 13.3743C9.42188 13.3989 9.25195 13.2685 8.8418 13.1948C8.47823 13.1209 8.09922 13.1888 7.78711 13.3838L7.45312 13.6786C7.1543 13.9413 6.79492 14.1699 6.85352 14.6235C6.89258 14.9221 7.15625 15.1734 7.57422 15.3907C7.88769 15.6611 8.13918 15.992 8.3125 16.3621C8.48473 16.7509 8.58012 17.1676 8.59375 17.5904C8.51758 19.0172 7.82812 20.2493 6.16992 21.181C4.2793 22.3149 2.68164 22.1769 1.25195 21.3435C0.390625 20.6953 0 19.9186 0 19.038C0 17.6849 0.666016 16.6002 1.70508 15.7536C2.43171 15.1984 3.21202 14.7123 4.03516 14.3022L6.76953 12.2329L6.81836 12.3935L18.625 5.74911ZM18.625 18.2405C20.7734 19.2175 22.5664 19.2005 24 18.2594L13.5078 12.4106L10.8457 13.8638L18.625 18.2405ZM8.25977 10.7986C8.09254 10.7631 7.93316 10.6991 7.78906 10.6096L7.45508 10.3148C7.15625 10.0521 6.79687 9.82346 6.85547 9.36991C6.89453 9.06944 7.1582 8.8181 7.57617 8.60267C7.89009 8.32867 8.14096 7.99387 8.3125 7.61999C8.4838 7.23415 8.57919 6.82077 8.59375 6.40108C8.51758 4.9743 7.82812 3.74028 6.16992 2.81051C4.2832 1.69177 2.68555 1.82027 1.25586 2.65366C0.390625 3.2943 0 4.07855 0 4.95352C0 6.29714 0.666016 7.39132 1.70508 8.23605C2.43122 8.79189 3.2116 9.27797 4.03516 9.6874L6.6875 11.6962L6.80469 11.6301L6.81641 11.5961L6.83984 11.6112L8.25977 10.7986ZM6.41602 7.75038C7.17969 7.26849 7.25781 6.45589 6.97656 5.68108C6.75195 5.05934 6.26953 4.52265 5.54688 4.07855C4.81652 3.63554 3.96227 3.4223 3.10156 3.46816C1.45313 3.61367 1.14844 5.03478 1.86133 6.27636C2.19367 6.84289 2.6955 7.2988 3.30078 7.58408C3.76201 7.81572 4.25958 7.97215 4.77344 8.04707C5.33979 8.14452 5.92346 8.03976 6.41602 7.75227V7.75038ZM10.7578 12.0364C10.7578 12.1703 10.7168 12.3011 10.6398 12.4124C10.5629 12.5237 10.4536 12.6105 10.3257 12.6616C10.1978 12.7128 10.0572 12.726 9.92146 12.6998C9.78577 12.6735 9.66119 12.6089 9.56348 12.5141C9.46577 12.4193 9.39933 12.2986 9.37257 12.1672C9.34581 12.0358 9.35994 11.8998 9.41316 11.7762C9.46638 11.6526 9.55631 11.5471 9.67155 11.4729C9.78679 11.3988 9.92217 11.3595 10.0605 11.3598C10.1523 11.3598 10.2431 11.3774 10.3278 11.4114C10.4126 11.4454 10.4895 11.4953 10.5543 11.5581C10.6191 11.621 10.6704 11.6956 10.7053 11.7776C10.7402 11.8597 10.7581 11.9476 10.7578 12.0364ZM6.41602 16.2411C7.17969 16.723 7.25781 17.5337 6.97656 18.3085C6.75195 18.9322 6.26953 19.467 5.54688 19.9205C4.81478 20.3586 3.96093 20.5678 3.10156 20.5196C1.45313 20.3722 1.14844 18.9511 1.86133 17.7095C2.1933 17.1431 2.69529 16.6877 3.30078 16.4036C3.76166 16.1712 4.25937 16.0147 4.77344 15.9407C5.34003 15.8438 5.92371 15.9492 6.41602 16.2373V16.2411Z" fill="white"/>
</svg>
