<svg width="24" height="24" viewBox="0 0 24 24" fill="none" xmlns="http://www.w3.org/2000/svg">
<path fill-rule="evenodd" clip-rule="evenodd" d="M1.47161 1.88146H9.16704V0.734381C9.16704 0.330471 9.50643 0 9.92257 0H14.1713C14.5872 0 14.9268 0.330276 14.9268 0.734381V1.88166H22.5284C22.7882 1.88166 23 2.0881 23 2.34045V4.5893H1V2.34025C1 2.08791 1.21199 1.88146 1.47161 1.88146ZM2.74618 5.78227H21.4178C21.807 5.78227 22.1605 6.09458 22.1253 6.47056L20.5451 23.3123C20.5101 23.6885 20.2256 24 19.8372 24H4.30447C3.91585 24 3.63092 23.6891 3.59636 23.3123L2.03806 6.47056C2.0035 6.09321 2.35655 5.78227 2.74618 5.78227ZM14.8804 8.39812H16.8629V21.1549H14.8804V8.39812ZM7.04269 8.39812H9.02537V21.1549H7.04269V8.39812ZM10.961 8.39812H12.9441V21.1549H10.961V8.39812Z" fill="white"/>
</svg>
