<svg width="24" height="24" viewBox="0 0 24 24" fill="none" xmlns="http://www.w3.org/2000/svg">
<g clip-path="url(#clip0_908_5867)">
<path fill-rule="evenodd" clip-rule="evenodd" d="M19.132 0.433588L23.5614 4.81243C24.1462 5.39055 24.1462 6.33585 23.5614 6.91396L21.1116 9.3358L14.5564 2.85543L17.0062 0.433588C17.591 -0.144529 18.5472 -0.144529 19.132 0.433588ZM8.98514 21.3102C7.21102 21.8532 5.43887 22.3942 3.66475 22.9372C-0.503852 24.2125 -0.486071 25.0621 0.651897 21.0934L2.4438 14.8435L2.43787 14.8377L13.3157 4.08197L19.8709 10.5623L8.99107 21.3181L8.98514 21.3102ZM3.56201 15.949L7.86693 20.2048C6.7013 20.5603 5.53568 20.9157 4.37203 21.2692C1.63379 22.1032 1.64564 22.6618 2.39046 20.0544L3.56201 15.949Z" fill="white"/>
</g>
<defs>
<clipPath id="clip0_908_5867">
<rect width="24" height="24" fill="white"/>
</clipPath>
</defs>
</svg>
