<svg width="24" height="24" viewBox="0 0 24 24" fill="none" xmlns="http://www.w3.org/2000/svg">
<path d="M15.7323 22H7.7326V13.6812L0.624002 4.91973C0.34369 4.55745 0.149627 4.18105 0.060565 3.83338C-0.0233413 3.50615 -0.021935 3.18672 0.0765025 2.90333C0.184315 2.58974 0.400877 2.33702 0.728534 2.17779C0.954002 2.06872 1.23291 2.00639 1.56572 2.00493L22.1579 2.00201C22.5296 1.98789 22.8587 2.04875 23.1301 2.16951C23.4592 2.31413 23.7057 2.55273 23.8538 2.8595C23.9968 3.15653 24.0381 3.50567 23.9635 3.88499C23.8932 4.23753 23.7212 4.62075 23.4329 5.01274L16.3107 13.6851V22H15.7323ZM20.214 5.06873L16.9721 9.01535L16.097 8.23577L19.3388 4.28915L20.214 5.06873ZM16.239 9.90839L15.0929 11.304L14.2173 10.5244L15.3634 9.12881L16.239 9.90839ZM8.88947 20.7987H15.1538V13.4664L15.2945 13.0769L22.5212 4.27843C22.6979 4.03643 22.7996 3.8212 22.8353 3.64347C22.8563 3.53634 22.8517 3.45113 22.824 3.39416C22.801 3.34693 22.7499 3.3031 22.6745 3.26999C22.5559 3.21497 22.3904 3.19013 22.1851 3.20084L1.5676 3.20377C1.4115 3.20133 1.29431 3.22373 1.21603 3.26122C1.18416 3.27681 1.16494 3.29288 1.16072 3.30602C1.14572 3.35033 1.15135 3.42678 1.17619 3.5232C1.22541 3.71602 1.34541 3.9405 1.52213 4.16985L8.75166 13.0822L8.88947 13.4664V20.7987Z" fill="white"/>
</svg>
