<svg width="24" height="24" viewBox="0 0 24 24" fill="none" xmlns="http://www.w3.org/2000/svg">
<g clip-path="url(#clip0_908_5833)">
<path fill-rule="evenodd" clip-rule="evenodd" d="M3.65039 15.4461L11.5586 6.91753C11.9766 6.46699 12.0293 6.44805 12.4629 6.91753L20.3496 15.4461V24H14.4902V18.2209C14.4897 18.0329 14.4202 17.8528 14.2969 17.7199C14.1736 17.5869 14.0064 17.512 13.832 17.5114H10.1719C9.99747 17.512 9.83035 17.5869 9.70702 17.7199C9.5837 17.8528 9.51419 18.0329 9.51367 18.2209V24H3.6543V15.4461H3.65039ZM11.752 0.184755L0 12.0797L2.89844 13.7198L11.1992 4.69643C11.9102 3.92589 11.918 3.90905 12.623 4.66275L21.1016 13.7156L24 12.0755L12.2305 0.165807C12.0195 -0.0447236 11.9883 -0.0720926 11.752 0.184755Z" fill="white"/>
</g>
<defs>
<clipPath id="clip0_908_5833">
<rect width="24" height="24" fill="white"/>
</clipPath>
</defs>
</svg>
