<svg width="24" height="24" viewBox="0 0 24 24" fill="none" xmlns="http://www.w3.org/2000/svg">
<path fill-rule="evenodd" clip-rule="evenodd" d="M2.60182 10.9445H4.46616V10.7346V7.24941C4.46616 5.25625 5.33538 3.44395 6.734 2.13086V2.1291C8.13324 0.81582 10.0646 0 12.1897 0C14.3131 0 16.244 0.81582 17.6433 2.1291L17.6454 2.13086C19.044 3.44395 19.9132 5.25625 19.9132 7.24941V10.7346V10.9445H21.3982C21.7291 10.9445 22 11.1988 22 11.5092V23.4354C22 23.7457 21.7291 24 21.3982 24H2.60182C2.27094 24 2 23.7457 2 23.4354V11.5092C2 11.1988 2.27094 10.9445 2.60182 10.9445ZM7.46692 10.9445H16.9118V10.7346V7.20918C16.9118 5.99043 16.3803 4.88164 15.5255 4.07832L15.5244 4.0791C14.6689 3.27559 13.4878 2.77656 12.1897 2.77656C10.8909 2.77656 9.70979 3.27539 8.85326 4.07832C7.99819 4.88164 7.46692 5.99043 7.46692 7.20918V10.7348V10.9445Z" fill="white"/>
</svg>
