<svg width="24" height="24" viewBox="0 0 24 24" fill="none" xmlns="http://www.w3.org/2000/svg">
<path fill-rule="evenodd" clip-rule="evenodd" d="M1.74609 3H22.2539C23.2148 3 24 3.75414 24 4.67712C24 5.6001 23.2148 6.35425 22.2539 6.35425H1.74609C0.785156 6.35425 0 5.6001 0 4.67712C0 3.75414 0.785156 3 1.74609 3ZM1.74609 17.6458H22.2539C23.2148 17.6458 24 18.3999 24 19.3229C24 20.2459 23.2148 21 22.2539 21H1.74609C0.785156 21 0 20.2459 0 19.3229C0 18.3999 0.785156 17.6458 1.74609 17.6458ZM1.74609 10.3219H22.2539C23.2148 10.3219 24 11.0761 24 11.9991C24 12.922 23.2148 13.6762 22.2539 13.6762H1.74609C0.785156 13.6762 0 12.922 0 11.9991C0 11.078 0.785156 10.3219 1.74609 10.3219Z" fill="white"/>
</svg>
