<svg width="24" height="24" viewBox="0 0 24 24" fill="none" xmlns="http://www.w3.org/2000/svg">
<path fill-rule="evenodd" clip-rule="evenodd" d="M3.3298 2.50411H6.52171V4.55506H5.14477C4.52995 4.55506 4.02121 5.06096 4.02121 5.67234V20.9919C4.02121 21.6033 4.52799 22.1092 5.14477 22.1092H18.8552C19.472 22.1092 19.9788 21.6053 19.9788 20.9919V5.67234C19.9788 5.05901 19.47 4.55506 18.8552 4.55506H17.4783V2.50411H20.6702C21.4029 2.50411 22 3.10377 22 3.82648V22.6776C22 23.4023 21.3989 24 20.6702 24H3.3298C2.60106 24 2 23.4042 2 22.6776V3.82648C2 3.09791 2.5991 2.50411 3.3298 2.50411ZM9.4229 18.73C9.02809 18.73 8.70792 18.4117 8.70792 18.019C8.70792 17.6264 9.02809 17.308 9.4229 17.308H14.5771C14.9719 17.308 15.2921 17.6264 15.2921 18.019C15.2921 18.4117 14.9719 18.73 14.5771 18.73H9.4229ZM7.89864 14.4367C7.50383 14.4367 7.18366 14.1183 7.18366 13.7257C7.18366 13.3331 7.50383 13.0147 7.89864 13.0147H16.1014C16.4962 13.0147 16.8163 13.3331 16.8163 13.7257C16.8163 14.1183 16.4962 14.4367 16.1014 14.4367H7.89864ZM6.55706 10.1454C6.16225 10.1454 5.84207 9.82697 5.84207 9.43436C5.84207 9.04175 6.16225 8.72337 6.55706 8.72337H17.4469C17.8417 8.72337 18.1619 9.04175 18.1619 9.43436C18.1619 9.82697 17.8417 10.1454 17.4469 10.1454H6.55706ZM8.36417 1.84781H9.87272C10.0004 0.806706 10.847 0 11.8723 0C12.8918 0 13.7325 0.794987 13.87 1.82632L15.6358 1.84781C15.7596 1.84781 15.8578 1.94547 15.8578 2.06853V5.06291C15.8578 5.18597 15.7596 5.28363 15.6358 5.28363H8.3681C8.24828 5.28363 8.14614 5.18597 8.14614 5.06291V2.06853C8.14221 1.94742 8.24239 1.84781 8.36417 1.84781ZM11.0473 2.75413C11.1829 2.93969 11.3793 3.1233 11.5855 3.21706C11.7545 3.26784 11.9391 3.27175 12.11 3.22487C12.3771 3.10181 12.6246 2.80687 12.7386 2.56076C12.7523 2.49044 12.7602 2.41817 12.7602 2.34003C12.7602 1.81851 12.3575 1.39464 11.8625 1.39464C11.3655 1.39464 10.9648 1.81851 10.9648 2.34003C10.9648 2.5002 10.9943 2.63889 11.0473 2.75413Z" fill="white"/>
</svg>
