<svg width="24" height="24" viewBox="0 0 24 24" fill="none" xmlns="http://www.w3.org/2000/svg">
<g clip-path="url(#clip0_1211_5860)">
<path d="M11.9969 24C11.1982 23.999 10.5533 23.35 10.5559 22.5518L10.5769 13.4231L1.44822 13.4441C0.650291 13.4469 0.000769654 12.8015 6.85866e-07 12.0031C-0.000768282 11.2046 0.645165 10.5546 1.44412 10.5518L10.531 10.531L10.5518 1.44412C10.5546 0.645165 11.2046 -0.000768282 12.0031 6.85866e-07C12.8015 0.000769654 13.4469 0.650291 13.4441 1.44822L13.4231 10.5769L22.5518 10.5559C23.35 10.5533 23.999 11.1982 24 11.9969C24.0008 12.7954 23.3548 13.4454 22.5561 13.4485L13.4692 13.4692L13.4485 22.5561C13.4464 23.0555 13.1919 23.495 12.8064 23.7544C12.5752 23.9098 12.2966 24.0003 11.9969 24Z" fill="white"/>
</g>
<defs>
<clipPath id="clip0_1211_5860">
<rect width="24" height="24" fill="white"/>
</clipPath>
</defs>
</svg>
