<svg width="24" height="24" viewBox="0 0 24 24" fill="none" xmlns="http://www.w3.org/2000/svg">
<g clip-path="url(#clip0_908_5849)">
<path fill-rule="evenodd" clip-rule="evenodd" d="M21.5627 4.59338L19.8402 2.87086C19.3871 2.41777 18.645 2.41777 18.1919 2.86891L16.9205 4.14029C16.2331 3.70868 15.4831 3.36496 14.6902 3.12475V1.16592C14.6902 0.525348 14.1649 0 13.5243 0H11.0889C10.4484 0 9.92302 0.525348 9.92302 1.16397V2.9607C9.11254 3.14623 8.34307 3.43917 7.62829 3.82195L6.24168 2.43535C5.78859 1.98226 5.04646 1.98226 4.59338 2.43535L2.87086 4.15786C2.41777 4.61095 2.41777 5.35308 2.87086 5.80617L4.14224 7.07755C3.71064 7.76499 3.36691 8.51493 3.1267 9.30784H1.16592C0.525348 9.30784 0 9.83318 0 10.4738V12.9091C0 13.5497 0.525348 14.075 1.16397 14.075H2.9607C3.14623 14.8855 3.43917 15.655 3.82195 16.3698L2.43535 17.7564C1.98226 18.2095 1.98226 18.9516 2.43535 19.4047L4.15786 21.1272C4.61095 21.5803 5.35308 21.5803 5.80617 21.1272L7.07755 19.8558C7.76499 20.2894 8.51493 20.6331 9.30784 20.8733V22.8341C9.30784 23.4747 9.83318 24 10.4738 24H12.9111C13.5516 24 14.077 23.4747 14.077 22.8341V21.0373C14.8875 20.8518 15.6569 20.5589 16.3717 20.1761L17.7583 21.5627C18.2114 22.0158 18.9535 22.0158 19.4066 21.5627L21.1291 19.8402C21.5822 19.3871 21.5822 18.645 21.1291 18.1919L19.8578 16.9205C20.2894 16.2331 20.6331 15.4831 20.8733 14.6902H22.8341C23.4747 14.6902 24 14.1649 24 13.5243V11.0889C24 10.4484 23.4747 9.92302 22.8341 9.92302H21.0373C20.8499 9.11254 20.5589 8.34307 20.1761 7.62829L21.5627 6.24168C22.0158 5.78859 22.0158 5.04646 21.5627 4.59338ZM11.9131 17.9673C15.2567 17.9673 17.9673 15.2567 17.9673 11.9131C17.9673 8.56945 15.2567 5.8589 11.9131 5.8589C8.56945 5.8589 5.8589 8.56945 5.8589 11.9131C5.8589 15.2567 8.56945 17.9673 11.9131 17.9673Z" fill="white"/>
</g>
<defs>
<clipPath id="clip0_908_5849">
<rect width="24" height="24" fill="white"/>
</clipPath>
</defs>
</svg>
