<svg width="24" height="24" viewBox="0 0 24 24" fill="none" xmlns="http://www.w3.org/2000/svg">
<g clip-path="url(#clip0_908_5873)">
<path d="M19.1615 4.06298e-07C19.957 -0.000328401 20.7403 0.198919 21.442 0.580088C22.1437 0.961257 22.7421 1.51258 23.1843 2.1852C23.6264 2.85782 23.8986 3.63096 23.9766 4.43614C24.0547 5.24131 23.9363 6.05364 23.6319 6.80115C23.3276 7.54866 22.8466 8.20826 22.2316 8.72152C21.6167 9.23478 20.8867 9.58583 20.1065 9.74359C19.3262 9.90134 18.5198 9.86092 17.7585 9.6259C16.9973 9.39088 16.3049 8.96852 15.7425 8.39625C15.6995 8.35257 15.6585 8.30888 15.6175 8.2632L9.53719 10.8448C9.67671 11.4261 9.71177 12.0282 9.64068 12.6222L15.8206 15.5513C16.6755 14.7259 17.7983 14.2481 18.9764 14.2084C20.1545 14.1687 21.306 14.5698 22.2127 15.3359C23.1194 16.1019 23.7183 17.1796 23.896 18.3648C24.0736 19.5499 23.8176 20.7602 23.1766 21.7662C22.5355 22.7722 21.5539 23.5042 20.4176 23.8233C19.2814 24.1424 18.0696 24.0266 17.0117 23.4977C15.9539 22.9689 15.1235 22.0637 14.678 20.9538C14.2325 19.8439 14.2027 18.6064 14.5944 17.4756L8.85769 14.7471C8.30355 15.5903 7.50666 16.2387 6.57614 16.6035C5.64563 16.9683 4.62698 17.0317 3.6597 16.7849C2.69242 16.5381 1.82379 15.9932 1.17277 15.2249C0.521751 14.4566 0.120167 13.5024 0.0230114 12.493C-0.0741443 11.4835 0.137879 10.4682 0.630046 9.58611C1.12221 8.70398 1.87046 7.99814 2.77233 7.56526C3.67419 7.13238 4.68558 6.99362 5.66799 7.16797C6.6504 7.34233 7.5558 7.82128 8.2602 8.53924C8.34611 8.62662 8.43008 8.71797 8.50818 8.8113L14.5104 6.26542C14.3057 5.53361 14.2706 4.76346 14.408 4.01554C14.5454 3.26762 14.8515 2.56231 15.3023 1.95507C15.7531 1.34784 16.3362 0.855231 17.0058 0.515991C17.6755 0.176751 18.4134 0.000124255 19.1615 4.06298e-07Z" fill="white"/>
</g>
<defs>
<clipPath id="clip0_908_5873">
<rect width="24" height="24" fill="white"/>
</clipPath>
</defs>
</svg>
