<svg width="24" height="24" viewBox="0 0 24 24" fill="none" xmlns="http://www.w3.org/2000/svg">
<g clip-path="url(#clip0_917_8464)">
<path d="M11.0948 1.92837C11.4547 1.16162 12.5453 1.16162 12.9052 1.92838L15.4815 7.41656C15.6231 7.71814 15.9055 7.92941 16.2348 7.98002L22.0777 8.87805C22.882 9.00166 23.2098 9.98286 22.6413 10.5651L18.3527 14.9573C18.1309 15.1845 18.0302 15.5036 18.0813 15.8169L19.0844 21.9672C19.2188 22.7911 18.3441 23.4073 17.6136 23.0033L12.4839 20.1667C12.1828 20.0001 11.8172 20.0001 11.5161 20.1667L6.38645 23.0033C5.65589 23.4073 4.78118 22.7911 4.91557 21.9672L5.91872 15.8169C5.96983 15.5036 5.86909 15.1845 5.64727 14.9573L1.35869 10.5651C0.790242 9.98286 1.11804 9.00166 1.92229 8.87805L7.76518 7.98002C8.09447 7.92941 8.37692 7.71814 8.51849 7.41656L11.0948 1.92837Z" fill="white"/>
</g>
<defs>
<clipPath id="clip0_917_8464">
<rect width="24" height="24" fill="white"/>
</clipPath>
</defs>
</svg>
