<svg width="24" height="24" viewBox="0 0 24 24" fill="none" xmlns="http://www.w3.org/2000/svg">
<path fill-rule="evenodd" clip-rule="evenodd" d="M12.8543 23.9199C16.0656 23.4648 18.9142 21.4062 20.5627 18.8065C20.4311 18.787 20.2996 18.7498 20.172 18.6971C19.7614 18.5213 19.4663 18.1932 19.3248 17.8104C19.2052 17.5369 18.7866 17.2205 18.378 16.9099C17.2178 16.031 16.0935 15.1755 16.3387 13.193C16.3906 12.7809 16.5301 12.3571 16.7394 11.9703L15.2224 9.23783C15.1347 9.07962 15.0789 8.9136 15.051 8.74563C15.0331 8.71047 15.0151 8.67726 15.0012 8.64211C14.5666 8.87844 14.0982 9.10892 13.5719 9.27103C10.8211 10.1187 8.94729 8.90579 11.1081 6.1225C12.5852 4.22009 9.32603 2.49738 6.43763 4.41932C4.07548 5.98773 2.03626 9.43119 2.00038 13.2184C1.95054 18.6991 6.85225 24.7696 12.8543 23.9199ZM21.2624 16.8806C20.6404 15.2634 18.1168 14.9099 18.358 12.9606C18.4218 12.445 18.7407 11.8863 19.2052 11.5836C19.3926 11.4625 19.6019 11.3805 19.8271 11.3609C19.9268 11.3531 20.0285 11.3531 20.1341 11.3668C21.4398 11.5309 22.0079 12.8688 21.9999 14.029C21.9919 15.0993 21.5773 16.1677 21.2624 16.8806ZM19.6617 6.81978C18.6431 6.90377 17.7201 7.1655 16.9009 7.62254L15.7048 1.18875C15.5852 0.678965 15.5773 0.303953 16.1593 0.0246478C16.3846 -0.0222286 16.5779 -0.00269678 16.7354 0.0871498C16.8909 0.175043 17.0125 0.329345 17.0982 0.553961L19.6617 6.81978ZM20.0584 10.5406C19.6736 10.5035 19.0358 10.6168 18.671 10.9566L17.0902 8.11084C17.9753 7.61864 18.8902 7.30222 19.859 7.2866C19.9308 8.64797 19.859 9.16165 20.0584 10.5406ZM5.16386 10.818C5.67815 11.4527 6.62102 11.5602 7.26887 11.0543C7.91672 10.5484 8.02635 9.62651 7.51007 8.99173C6.99578 8.35694 6.0549 8.24952 5.40506 8.75539C4.75722 9.25736 4.64957 10.1812 5.16386 10.818ZM14.2935 19.0018C14.8696 19.7128 15.9281 19.8319 16.6557 19.2674C17.3853 18.701 17.5068 17.6639 16.9308 16.951C15.5553 15.2556 12.9181 17.3025 14.2935 19.0018ZM8.69413 20.6464C9.39779 21.5156 10.6875 21.6601 11.5746 20.9706C12.4616 20.2811 12.6091 19.0174 11.9055 18.1483C11.2018 17.2791 9.91209 17.1346 9.02503 17.824C8.13798 18.5135 7.99047 19.7772 8.69413 20.6464ZM4.68346 16.2556C5.29144 17.0076 6.40972 17.1326 7.17717 16.5369C7.94462 15.9412 8.07419 14.8474 7.46422 14.0935C6.85624 13.3415 5.73796 13.2165 4.97051 13.8122C4.20306 14.4099 4.07548 15.5037 4.68346 16.2556Z" fill="white"/>
</svg>
