<svg width="24" height="24" viewBox="0 0 24 24" fill="none" xmlns="http://www.w3.org/2000/svg">
<g clip-path="url(#clip0_908_5871)">
<path fill-rule="evenodd" clip-rule="evenodd" d="M11.9997 0C18.6265 0 24 5.37368 24 11.9997C24 18.6267 18.6263 24 11.9997 24C5.37368 24 0 18.6265 0 11.9997C0 5.37348 5.37368 0 11.9997 0ZM11.9997 5.65923C12.7638 5.65923 13.497 5.79458 14.1751 6.04243L16.9681 3.24964C15.5025 2.41525 13.8066 1.93869 11.9997 1.93869C10.1739 1.93869 8.4612 2.42541 6.98443 3.27678L9.77098 6.06275C10.4647 5.8022 11.2159 5.65923 11.9997 5.65923ZM18.0396 10.0655C18.2349 10.6755 18.3408 11.3257 18.3408 11.9997C18.3408 12.7841 18.1978 13.5355 17.9369 14.229L20.7234 17.0158C21.5742 15.539 22.0617 13.8263 22.0617 11.9997C22.0617 10.2782 21.6285 8.6571 20.8658 7.23951L18.0396 10.0655ZM13.8782 18.0578C13.2849 18.2416 12.6534 18.3408 11.9999 18.3408C11.3259 18.3408 10.6757 18.2347 10.0657 18.0394L7.23971 20.865C8.6571 21.6279 10.2784 22.0613 11.9999 22.0613C13.7027 22.0613 15.306 21.6375 16.7119 20.891L13.8782 18.0578ZM6.04282 14.1747C5.79458 13.4964 5.65923 12.7636 5.65923 11.9995C5.65923 11.3464 5.75845 10.7151 5.94224 10.1216L3.10901 7.28834C2.36252 8.69421 1.93869 10.2977 1.93869 11.9997C1.93869 13.8064 2.41564 15.5021 3.24964 16.9677L6.04282 14.1747ZM16.3896 11.9997C16.3896 12.2159 16.3738 12.4284 16.3437 12.6364C16.3394 12.6673 16.3341 12.6993 16.329 12.7302L16.3286 12.7329C16.1466 13.8159 15.5677 14.7642 14.7474 15.4234L14.7413 15.4279C14.72 15.4454 14.6982 15.4622 14.6771 15.479L14.6644 15.4886C14.4935 15.6187 14.3126 15.7372 14.1249 15.8415L14.1245 15.8419C14.0989 15.856 14.0732 15.8702 14.0472 15.8835L14.0378 15.8888C14.0116 15.9021 13.9853 15.916 13.9595 15.9288L13.9579 15.9296C13.7632 16.0269 13.5593 16.1101 13.3517 16.1773L13.3441 16.1796C13.3155 16.1892 13.2868 16.198 13.2583 16.2064L13.254 16.2076C13.2249 16.2167 13.195 16.2251 13.1653 16.2335L13.163 16.2339C12.981 16.2835 12.7942 16.322 12.6071 16.3476L12.5921 16.3499C12.5646 16.3538 12.5366 16.3568 12.5089 16.3607L12.4929 16.3622C12.4653 16.3654 12.4382 16.3679 12.4101 16.3706L12.3909 16.3726L12.3081 16.379L12.294 16.3802C12.2649 16.3818 12.2356 16.3837 12.206 16.3847C12.1376 16.3882 12.069 16.3896 11.9999 16.3896C11.9073 16.3896 11.8153 16.3865 11.7239 16.3804C10.6716 16.3152 9.71961 15.8788 8.99734 15.2009L8.99695 15.2005C8.81843 15.0337 8.6532 14.8495 8.50515 14.655L8.49929 14.6474C8.48171 14.6245 8.46394 14.6005 8.44655 14.5769L8.44382 14.573C8.42702 14.5493 8.40886 14.5245 8.39226 14.5005L8.38952 14.4964C8.28542 14.3458 8.18932 14.1878 8.10475 14.0257L8.10046 14.0173C8.08815 13.9933 8.07604 13.9689 8.06413 13.9452L8.05729 13.9316C8.04596 13.9083 8.03405 13.8835 8.02311 13.8603L8.01471 13.8431C8.00378 13.8191 7.99323 13.7946 7.98249 13.7706L7.97682 13.7573C7.96569 13.7325 7.95514 13.7073 7.9444 13.6821L7.93815 13.6665C7.92799 13.6417 7.91784 13.6165 7.90749 13.5913L7.90631 13.5874C7.86295 13.4741 7.82311 13.3581 7.78854 13.2417L7.78444 13.2276C7.77702 13.2017 7.76999 13.1757 7.76295 13.1499L7.75807 13.1327C7.75104 13.1075 7.7444 13.0808 7.73834 13.0554L7.73366 13.0358C7.72741 13.0114 7.72135 12.9858 7.71608 12.9614L7.7108 12.937C7.70592 12.9122 7.69967 12.8851 7.69479 12.8599L7.69323 12.8503C7.67545 12.7599 7.66041 12.6687 7.6485 12.5761C7.6235 12.3856 7.61041 12.1931 7.61041 12.0009V12.0001C7.61041 11.931 7.61276 11.8628 7.6153 11.7952C7.67897 10.4081 8.38718 9.18855 9.44715 8.42956C10.9452 7.46295 13.0503 7.46217 14.5493 8.42722C15.5931 9.17312 16.2966 10.3649 16.3808 11.7243L16.3826 11.7229C16.3869 11.8136 16.3896 11.9058 16.3896 11.9997Z" fill="white"/>
</g>
<defs>
<clipPath id="clip0_908_5871">
<rect width="24" height="24" fill="white"/>
</clipPath>
</defs>
</svg>
