<svg width="24" height="24" viewBox="0 0 24 24" fill="none" xmlns="http://www.w3.org/2000/svg">
<path d="M0 0V13.7143H3.42857V0H0ZM6.85714 0V13.7143C7.81714 13.7143 8.67429 14.0229 9.32571 14.6743C9.97714 15.3257 13.2686 21.9429 13.7143 22.8343C14.16 23.7257 15.0514 24.1714 15.9771 23.8971C16.8686 23.6229 17.3486 22.6629 17.04 21.7371C16.7657 20.8457 15.4286 16.2857 15.4286 15.4286C15.4286 14.5714 16.1829 13.7143 17.1429 13.7143H22.2857C23.2457 13.7143 24 12.96 24 12C24 11.04 20.4686 1.06286 20.4686 1.06286C20.1943 0.445714 19.5771 0 18.8571 0L6.85714 0Z" fill="white"/>
</svg>
