<svg width="24" height="24" viewBox="0 0 24 24" fill="none" xmlns="http://www.w3.org/2000/svg">
<path d="M15.3257 0.00911953C14.6743 0.077691 14.0571 0.523405 13.7143 1.17483C13.2686 2.06626 9.97714 8.68341 9.32571 9.33483C8.67429 9.98626 7.81714 10.2948 6.85714 10.2948V24.0091H18.8571C19.5771 24.0091 20.1943 23.5634 20.4686 22.9463C20.4686 22.9463 24 12.9691 24 12.0091C24 11.0491 23.2457 10.2948 22.2857 10.2948H17.1429C16.1829 10.2948 15.4286 9.43769 15.4286 8.58055C15.4286 7.72341 16.7657 3.16341 17.04 2.27198C17.3143 1.38055 16.8686 0.420548 15.9771 0.111977C15.7371 0.0434052 15.5657 -0.0251662 15.3257 0.00911953ZM0 10.2948V24.0091H3.42857V10.2948H0Z" fill="white"/>
</svg>
