<svg width="24" height="24" viewBox="0 0 24 24" fill="none" xmlns="http://www.w3.org/2000/svg">
<g clip-path="url(#clip0_908_5839)">
<path fill-rule="evenodd" clip-rule="evenodd" d="M0 24V20.1196C2.05095 19.1965 8.33076 17.4392 8.6257 14.899C8.69211 14.3258 7.35607 12.1395 7.0494 11.0918C6.3931 10.0342 6.1587 8.354 6.87556 7.23714C7.16074 6.79237 7.03964 5.17341 7.03964 4.56259C7.03964 -1.51988 17.5717 -1.52185 17.5717 4.56259C17.5717 5.33155 17.3959 6.74493 17.81 7.34981C18.5015 8.36191 18.1441 10.1548 17.562 11.0918C17.1889 12.1929 15.7689 14.2764 15.89 14.899C16.3412 17.2197 22.1659 18.7794 24 19.6037V23.998L0 24Z" fill="white"/>
</g>
<defs>
<clipPath id="clip0_908_5839">
<rect width="24" height="24" fill="white"/>
</clipPath>
</defs>
</svg>
